<?xml version="1.0" encoding="utf-8"?>
<!-- Generator: Adobe Illustrator 16.0.0, SVG Export Plug-In . SVG Version: 6.00 Build 0)  -->
<!DOCTYPE svg PUBLIC "-//W3C//DTD SVG 1.1//EN" "http://www.w3.org/Graphics/SVG/1.1/DTD/svg11.dtd">
<svg version="1.1" id="Layer_1" xmlns="http://www.w3.org/2000/svg" xmlns:xlink="http://www.w3.org/1999/xlink" x="0px" y="0px"
	 width="300px" height="135px" viewBox="0 0 300 135" enable-background="new 0 0 300 135" xml:space="preserve">
<path fill="#8E8E8D" d="M280.071,23.192c-19.91-19.904-52.31-19.904-72.208,0c-19.903,19.907-19.903,52.3,0,72.208
	c9.942,9.971,23.043,14.932,36.111,14.932v21.176c0,0,21.44-21.461,36.097-36.107C299.976,75.492,299.976,43.101,280.071,23.192
	 M243.968,96.992c-20.769,0-37.68-16.917-37.68-37.696c0-20.765,16.911-37.673,37.68-37.673c20.775,0,37.687,16.908,37.687,37.673
	C281.654,80.075,264.743,96.992,243.968,96.992"/>
<path fill="#8E8E8D" d="M243.897,28.77c-16.831,0-30.49,13.663-30.49,30.501c0,8.416,3.418,16.05,8.931,21.56l5.074-5.055
	c-4.229-4.22-6.816-10.071-6.816-16.505c0-12.871,10.435-23.322,23.302-23.322c12.889,0,23.342,10.451,23.342,23.322
	c0,6.434-2.626,12.285-6.836,16.505l5.074,5.055c5.52-5.51,8.944-13.144,8.944-21.56C274.422,42.433,260.75,28.77,243.897,28.77"/>
<path fill="#8E8E8D" d="M243.897,43.73c-8.565,0-15.541,6.956-15.541,15.541c0,4.358,1.81,8.286,4.703,11.108l5.117-5.061
	c-1.608-1.522-2.625-3.66-2.625-6.047c0-4.611,3.747-8.347,8.348-8.347c4.618,0,8.351,3.736,8.351,8.347
	c0,2.15-0.834,4.091-2.171,5.571l5.014,5.181c2.685-2.793,4.354-6.571,4.354-10.751C259.446,50.686,252.497,43.73,243.897,43.73"/>
<path fill="#FAB20F" d="M143.033,8.916v50.2c0,4.469,3.233,8.125,7.185,8.125c3.995,0,7.183-3.656,7.183-8.125V8.912
	C152.641,8.048,147.794,8.049,143.033,8.916"/>
<path fill="#FAB20F" d="M186.17,23.101c-5.186-5.194-11.247-8.942-17.696-11.406v14.66c11.479,6.424,19.273,18.675,19.273,32.734
	c0,20.69-16.845,37.561-37.533,37.561c-20.706,0-37.545-16.87-37.545-37.561c0-14.046,7.775-26.287,19.241-32.716V11.704
	c-6.443,2.464-12.502,6.21-17.69,11.397c-1.238,1.237-2.398,2.524-3.481,3.853c-0.005,0.005-0.007,0.011-0.011,0.016
	c-1.056,1.296-2.033,2.634-2.942,4.006c-0.156,0.235-0.288,0.488-0.441,0.727c-0.753,1.182-1.479,2.377-2.125,3.605
	c-0.103,0.192-0.186,0.397-0.285,0.591c-9.749,19.111-6.67,43.174,9.285,59.158c0.629,0.627,1.28,1.279,1.93,1.927
	c9.064,8.205,21.046,13.247,34.235,13.247c11.952,0,22.919-4.136,31.62-11.01c1.424-1.425,2.827-2.827,4.165-4.164
	C206.016,75.215,206.016,42.907,186.17,23.101"/>
<path fill="#EA233D" d="M92.605,23.192c-19.898-19.904-52.297-19.904-72.208,0c-19.904,19.907-19.904,52.3,0,72.208
	c14.657,14.646,36.097,36.107,36.097,36.107v-21.176c13.068,0,26.169-4.961,36.111-14.932
	C112.509,75.492,112.509,43.101,92.605,23.192 M56.501,96.992c-20.775,0-37.687-16.917-37.687-37.696
	c0-20.765,16.912-37.673,37.687-37.673c20.769,0,37.68,16.908,37.68,37.673C94.181,80.075,77.27,96.992,56.501,96.992"/>
</svg>
